HIERARCHY
ROOT Hips
{
	OFFSET 0.000000 0.000000 0.000000
	CHANNELS 6 Xposition Yposition Zposition Zrotation Yrotation Xrotation 
	JOINT LHipJoint
	{
		OFFSET 0.000000 0.000000 0.000000
		CHANNELS 3 Zrotation Yrotation Xrotation
		JOINT LeftUpLeg
		{
			OFFSET 1.363060 -1.794630 0.839290
			CHANNELS 3 Zrotation Yrotation Xrotation
			JOINT LeftLeg
			{
				OFFSET 2.448110 -6.726130 0.000000
				CHANNELS 3 Zrotation Yrotation Xrotation
				JOINT LeftFoot
				{
					OFFSET 2.562200 -7.039590 0.000000
					CHANNELS 3 Zrotation Yrotation Xrotation
					JOINT LeftToeBase
					{
						OFFSET 0.157640 -0.433110 2.322550
						CHANNELS 3 Zrotation Yrotation Xrotation
						End Site
						{
							OFFSET 0.000000 0.000000 0.000000
						}
					}
				}
			}
		}
	}
	JOINT RHipJoint
	{
		OFFSET 0.000000 0.000000 0.000000
		CHANNELS 3 Zrotation Yrotation Xrotation
		JOINT RightUpLeg
		{
			OFFSET -1.305520 -1.794630 0.839290
			CHANNELS 3 Zrotation Yrotation Xrotation
			JOINT RightLeg
			{
				OFFSET -2.542530 -6.985550 0.000000
				CHANNELS 3 Zrotation Yrotation Xrotation
				JOINT RightFoot
				{
					OFFSET -2.568260 -7.056230 0.000000
					CHANNELS 3 Zrotation Yrotation Xrotation
					JOINT RightToeBase
					{
						OFFSET -0.164730 -0.452590 2.363150
						CHANNELS 3 Zrotation Yrotation Xrotation
						End Site
						{
							OFFSET 0.000000 0.000000 0.000000
						}
					}
				}
			}
		}
	}
	JOINT LowerBack
	{
		OFFSET 0.000000 0.000000 0.000000
		CHANNELS 3 Zrotation Yrotation Xrotation
		JOINT Spine
		{
			OFFSET 0.028270 2.035590 -0.193380
			CHANNELS 3 Zrotation Yrotation Xrotation
			JOINT Spine1
			{
				OFFSET 0.056720 2.048850 -0.042750
				CHANNELS 3 Zrotation Yrotation Xrotation
				JOINT Neck
				{
					OFFSET 0.000000 0.000000 0.000000
					CHANNELS 3 Zrotation Yrotation Xrotation
					JOINT Neck1
					{
						OFFSET -0.054170 1.746240 0.172020
						CHANNELS 3 Zrotation Yrotation Xrotation
						JOINT Head
						{
							OFFSET 0.104070 1.761360 -0.123970
							CHANNELS 3 Zrotation Yrotation Xrotation
							End Site
							{
								OFFSET 0.000000 0.000000 0.000000
							}
						}
					}
				}
				JOINT LeftShoulder
				{
					OFFSET 0.000000 0.000000 0.000000
					CHANNELS 3 Zrotation Yrotation Xrotation
					JOINT LeftArm
					{
						OFFSET 3.362410 1.200890 -0.311210
						CHANNELS 3 Zrotation Yrotation Xrotation
						JOINT LeftForeArm
						{
							OFFSET 4.983000 -0.000000 -0.000000
							CHANNELS 3 Zrotation Yrotation Xrotation
							JOINT LeftHand
							{
								OFFSET 3.483560 -0.000000 -0.000000
								CHANNELS 3 Zrotation Yrotation Xrotation
								JOINT LeftFingerBase
								{
									OFFSET 0.000000 0.000000 0.000000
									CHANNELS 3 Zrotation Yrotation Xrotation
									JOINT LeftHandIndex1
									{
										OFFSET 0.715260 -0.000000 -0.000000
										CHANNELS 3 Zrotation Yrotation Xrotation
										End Site
										{
											OFFSET 0.000000 0.000000 0.000000
										}
									}
								}
								JOINT LThumb
								{
									OFFSET 0.000000 0.000000 0.000000
									CHANNELS 3 Zrotation Yrotation Xrotation
									End Site
									{
										OFFSET 0.000000 0.000000 0.000000
									}
								}
							}
						}
					}
				}
				JOINT RightShoulder
				{
					OFFSET 0.000000 0.000000 0.000000
					CHANNELS 3 Zrotation Yrotation Xrotation
					JOINT RightArm
					{
						OFFSET -3.136600 1.374050 -0.404650
						CHANNELS 3 Zrotation Yrotation Xrotation
						JOINT RightForeArm
						{
							OFFSET -5.241900 -0.000000 -0.000000
							CHANNELS 3 Zrotation Yrotation Xrotation
							JOINT RightHand
							{
								OFFSET -3.444170 -0.000000 -0.000000
								CHANNELS 3 Zrotation Yrotation Xrotation
								JOINT RightFingerBase
								{
									OFFSET 0.000000 0.000000 0.000000
									CHANNELS 3 Zrotation Yrotation Xrotation
									JOINT RightHandIndex1
									{
										OFFSET -0.622530 -0.000000 -0.000000
										CHANNELS 3 Zrotation Yrotation Xrotation
										End Site
										{
											OFFSET 0.000000 0.000000 0.000000
										}
									}
								}
								JOINT RThumb
								{
									OFFSET 0.000000 0.000000 0.000000
									CHANNELS 3 Zrotation Yrotation Xrotation
									End Site
									{
										OFFSET 0.000000 0.000000 0.000000
									}
								}
							}
						}
					}
				}
			}
		}
	}
}
MOTION
Frames: 10
Frame Time: 0.008333
0.715698 17.841730 -10.845882 0.686849 1.021179 6.942037 -4.281111 2.337330 3.068414 -16.932416 -6.275042 -25.405605 2.307156 11.648134 37.827772 3.297046 -5.212333 3.871381 0.000600 0.160300 0.440500 2.818710 -2.646256 3.919207 14.162829 7.715733 -23.910521 -19.324836 -18.337477 84.319456 2.563146 -13.175845 20.511927 -0.608700 -4.993900 13.891200 -1.431056 1.790597 13.059656 0.754518 2.260610 -1.169027 0.233908 0.980084 -8.507324 -4.552530 -4.904796 -16.298840 7.880841 -5.886193 2.987985 0.885800 -2.646100 5.458400 -4.663581 1.677266 -0.982405 -80.695884 14.217546 48.062774 116.049643 -58.732539 -84.958358 -0.626321 -0.922501 -26.488873 33.851144 2.459932 2.141700 -7.125000 0.000000 0.000000 6.725700 33.675400 -1.878700 8.625487 -1.137255 -2.709524 78.188456 -9.891773 48.541516 -96.853062 62.167291 -69.524981 0.957133 -0.531176 -8.515771 -25.743386 32.133669 -15.107500 7.125000 0.000000 0.000000 3.017200 5.561100 3.299700
0.718802 17.835599 -10.682164 0.627911 1.026946 7.033669 -4.288721 2.385616 3.168531 -16.921651 -6.204699 -25.031437 2.361037 11.652049 37.951896 3.249324 -5.036827 3.472155 0.000487 0.141697 0.389362 2.759816 -2.584437 3.800243 14.136949 7.741830 -24.834095 -19.376604 -18.406655 84.582405 2.549661 -12.914011 20.027130 -0.428210 -3.986578 11.065727 -1.347062 1.655335 13.081186 0.792416 2.113713 -1.172915 0.312458 0.896291 -8.507807 -4.659740 -4.845408 -16.488036 7.909135 -5.763756 3.046818 0.923984 -2.581443 5.518500 -4.670564 1.664409 -0.970029 -80.847782 13.355898 47.974973 115.992248 -58.726587 -84.930357 -0.635590 -0.920785 -26.253618 34.095895 2.382635 2.107056 -7.125000 0.000000 0.000000 6.924792 33.589580 -1.950248 8.627721 -1.126641 -2.726903 77.973840 -10.280312 48.624964 -97.025293 62.182635 -69.653200 0.950422 -0.536680 -8.529062 -25.759530 32.358114 -15.202810 7.125000 0.000000 0.000000 3.055083 5.800673 3.352909
0.721907 17.829469 -10.518446 0.568973 1.032713 7.125300 -4.296332 2.433903 3.268647 -16.910886 -6.134356 -24.657268 2.414918 11.655964 38.076020 3.201602 -4.861321 3.072928 0.000374 0.123095 0.338224 2.700923 -2.522618 3.681279 14.111070 7.767926 -25.757668 -19.428371 -18.475832 84.845353 2.536176 -12.652176 19.542333 -0.247721 -2.979256 8.240254 -1.263068 1.520073 13.102716 0.830315 1.966817 -1.176804 0.391008 0.812497 -8.508290 -4.766951 -4.786021 -16.677232 7.937428 -5.641319 3.105651 0.962168 -2.516786 5.578601 -4.677548 1.651552 -0.957654 -80.999680 12.494251 47.887172 115.934853 -58.720636 -84.902355 -0.644859 -0.919068 -26.018363 34.340647 2.305338 2.072411 -7.125000 0.000000 0.000000 7.123884 33.503760 -2.021796 8.629955 -1.116026 -2.744283 77.759224 -10.668852 48.708413 -97.197524 62.197979 -69.781418 0.943711 -0.542184 -8.542353 -25.775674 32.582559 -15.298119 7.125000 0.000000 0.000000 3.092966 6.040246 3.406118
0.724727 17.822851 -10.352969 0.537035 0.995837 7.236481 -4.309647 2.481833 3.372888 -16.928341 -6.046291 -24.275314 2.459515 11.650144 38.170776 3.165050 -4.711570 2.659035 0.000326 0.077189 0.212089 2.639881 -2.461020 3.559834 14.058434 7.836339 -26.684072 -19.467802 -18.546728 85.065310 2.519384 -12.385133 19.059562 -0.121280 -2.234422 6.154501 -1.239425 1.385496 13.060960 0.878413 1.812515 -1.178727 0.530653 0.726741 -8.473236 -4.909826 -4.719980 -16.866262 7.964031 -5.500530 3.168711 1.006838 -2.444541 5.638740 -4.682967 1.640832 -0.943593 -81.206038 11.645014 47.750389 115.919742 -58.700333 -84.912454 -0.641135 -0.908952 -25.720680 34.061101 2.120100 1.931070 -7.125000 0.000000 0.000000 6.878626 33.273109 -1.979215 8.634791 -1.108186 -2.760940 77.474812 -11.050712 48.870830 -97.407122 62.214182 -69.936752 0.936049 -0.544564 -8.588942 -25.797398 32.757886 -15.376295 7.125000 0.000000 0.000000 3.118773 6.227820 3.443555
0.727006 17.815306 -10.184142 0.556482 0.877805 7.384868 -4.333820 2.529086 3.484978 -16.999505 -5.924496 -23.878541 2.486444 11.625796 38.209638 3.149757 -4.610835 2.217229 0.000401 -0.020681 -0.056781 2.574750 -2.399843 3.433667 13.954878 7.985288 -27.615861 -19.483751 -18.620893 85.203444 2.496298 -12.108177 18.580648 -0.097707 -1.989162 5.476602 -1.330646 1.252225 12.898756 0.945926 1.644119 -1.176909 0.786573 0.637249 -8.370544 -5.120580 -4.641277 -17.054976 7.987415 -5.324813 3.239817 1.063850 -2.357855 5.698954 -4.685408 1.634177 -0.926324 -81.516043 10.819397 47.520384 115.985104 -58.652716 -84.995064 -0.612680 -0.882850 -25.304184 32.783697 1.729424 1.586660 -7.125000 0.000000 0.000000 5.787667 32.766812 -1.719420 8.644581 -1.105627 -2.776221 77.057562 -11.419860 49.183544 -97.687839 62.232020 -70.143690 0.926580 -0.541000 -8.698905 -25.829744 32.839733 -15.421859 7.125000 0.000000 0.000000 3.121597 6.316427 3.450974
0.729286 17.807760 -10.015315 0.575930 0.759773 7.533254 -4.357993 2.576339 3.597068 -17.070668 -5.802702 -23.481768 2.513372 11.601447 38.248500 3.134465 -4.510101 1.775422 0.000477 -0.118551 -0.325651 2.509619 -2.338666 3.307501 13.851321 8.134238 -28.547651 -19.499700 -18.695058 85.341578 2.473212 -11.831221 18.101734 -0.074134 -1.743903 4.798702 -1.421866 1.118953 12.736551 1.013439 1.475724 -1.175091 1.042494 0.547758 -8.267853 -5.331334 -4.562574 -17.243690 8.010799 -5.149096 3.310923 1.120863 -2.271169 5.759167 -4.687849 1.627522 -0.909055 -81.826049 9.993781 47.290379 116.050467 -58.605100 -85.077675 -0.584225 -0.856749 -24.887688 31.506294 1.338749 1.242250 -7.125000 0.000000 0.000000 4.696709 32.260515 -1.459625 8.654371 -1.103067 -2.791502 76.640312 -11.789009 49.496257 -97.968555 62.249857 -70.350628 0.917110 -0.537435 -8.808868 -25.862089 32.921579 -15.467424 7.125000 0.000000 0.000000 3.124421 6.405033 3.458392
0.731755 17.803139 -9.847246 0.581553 0.710895 7.653624 -4.387922 2.625818 3.708178 -17.116587 -5.735383 -23.045699 2.513683 11.552356 38.207004 3.051389 -4.258689 1.503166 0.005818 -0.352926 -0.969868 2.454042 -2.281579 3.191121 13.786813 8.210907 -29.438958 -19.481346 -18.768361 85.356034 2.448192 -11.589279 17.706074 -0.064828 -1.642255 4.517888 -1.454444 0.991101 12.572065 1.060366 1.320298 -1.177784 1.208589 0.462986 -8.176786 -5.462156 -4.509417 -17.285441 8.021600 -5.042277 3.368614 1.155021 -2.219400 5.786357 -4.686554 1.618975 -0.891955 -82.024043 9.269773 47.159454 116.329113 -58.509938 -85.311832 -0.557104 -0.837712 -24.569052 30.426651 1.227511 1.109029 -7.125000 0.000000 0.000000 3.789416 32.099939 -1.198948 8.659638 -1.108350 -2.807854 76.286107 -12.178116 49.739188 -98.387625 62.257038 -70.662990 0.904312 -0.533424 -8.993140 -25.843509 32.943987 -15.455477 7.125000 0.000000 0.000000 3.146650 6.420330 3.483788
0.734310 17.799838 -9.679520 0.580934 0.693249 7.761341 -4.420450 2.676302 3.818847 -17.151104 -5.692665 -22.591884 2.501973 11.492091 38.129219 2.937701 -3.939230 1.307482 0.013538 -0.648946 -1.783596 2.402780 -2.226340 3.079161 13.739942 8.254933 -30.311984 -19.447501 -18.841273 85.314636 2.422297 -11.363150 17.348011 -0.061967 -1.605464 4.416403 -1.460538 0.865696 12.406549 1.097997 1.170729 -1.182515 1.334118 0.380345 -8.090968 -5.556879 -4.467797 -17.260822 8.026718 -4.966574 3.420245 1.178858 -2.183400 5.798633 -4.683571 1.609572 -0.874931 -82.171453 8.591654 47.073274 116.704082 -58.393304 -85.614431 -0.530585 -0.821865 -24.294611 29.436319 1.242471 1.071184 -7.125000 0.000000 0.000000 2.965069 32.095495 -0.937873 8.662861 -1.117173 -2.824689 75.960375 -12.576237 49.950603 -98.869176 62.259405 -71.022961 0.890011 -0.529211 -9.210970 -25.801931 32.939551 -15.417556 7.125000 0.000000 0.000000 3.177641 6.402518 3.517303
0.736915 17.796864 -9.511754 0.579933 0.681279 7.868273 -4.453164 2.727045 3.929389 -17.184323 -5.655240 -22.135286 2.489069 11.430617 38.047671 2.821291 -3.614526 1.120136 0.022165 -0.950665 -2.613123 2.352067 -2.171328 2.967780 13.693832 8.292569 -31.182929 -19.411126 -18.914280 85.265744 2.395669 -11.135384 16.991685 -0.059333 -1.571590 4.322962 -1.462125 0.740419 12.244002 1.133883 1.021731 -1.187965 1.452602 0.297854 -8.008182 -5.644898 -4.427697 -17.234992 8.030798 -4.894718 3.472702 1.200828 -2.149107 5.811086 -4.680578 1.600005 -0.858113 -82.311708 7.917491 46.993895 117.088660 -58.274266 -85.923600 -0.504571 -0.806615 -24.026196 28.472742 1.273456 1.043454 -7.125000 0.000000 0.000000 2.162927 32.110087 -0.683033 8.665632 -1.125953 -2.841660 75.641802 -12.975419 50.154315 -99.356753 62.260790 -71.387559 0.875569 -0.525317 -9.432144 -25.756814 32.939955 -15.379226 7.125000 0.000000 0.000000 3.211687 6.389141 3.554447
0.741002 17.803388 -9.342849 0.567859 0.833939 7.952424 -4.491253 2.785311 4.036260 -17.179868 -5.771280 -21.597950 2.441555 11.334112 37.857022 2.625931 -3.137706 1.174579 0.057110 -1.417610 -3.900800 2.317283 -2.122895 2.873198 13.669844 8.144874 -31.993557 -19.301394 -18.990040 84.999565 2.347768 -10.860125 16.685726 -0.063325 -1.622276 4.462820 -1.333002 0.618852 12.167594 1.119172 0.889271 -1.214279 1.366795 0.219709 -8.013307 -5.538512 -4.431674 -17.174031 8.004784 -4.934438 3.549078 1.168669 -2.164321 5.828672 -4.677291 1.585667 -0.847297 -82.244506 7.358051 47.111748 117.751919 -58.085538 -86.423348 -0.493182 -0.808657 -23.932500 28.285057 1.769133 1.309086 -7.125000 0.000000 0.000000 2.004730 32.676711 -0.609038 8.655273 -1.133452 -2.862580 75.530863 -13.405371 50.134644 -100.019056 62.233704 -71.886315 0.857056 -0.530685 -9.750282 -25.609069 33.080679 -15.328991 7.125000 0.000000 0.000000 3.334298 6.504371 3.696866
